<?xml version="1.0" encoding="utf-8"?>
<!-- Generator: Adobe Illustrator 26.3.1, SVG Export Plug-In . SVG Version: 6.00 Build 0)  -->
<svg version="1.1" id="Laag_1" xmlns="http://www.w3.org/2000/svg" xmlns:xlink="http://www.w3.org/1999/xlink" x="0px" y="0px"
	 viewBox="0 0 35.76 35.86" style="enable-background:new 0 0 35.76 35.86;" xml:space="preserve">
<style type="text/css">
	.st0{fill:#F2C65E;}
	.st1{fill:#FFFFFF;}
</style>
<g>
	<circle class="st0" cx="17.91" cy="18.01" r="17.69"/>
	<g>
		<g>
			<path class="st1" d="M23.4,11.32c-0.67,0-1.22,0.54-1.22,1.22c0,0.67,0.54,1.22,1.22,1.22c0.67,0,1.22-0.54,1.22-1.22
				S24.07,11.32,23.4,11.32z"/>
			<path class="st1" d="M17.99,12.88c-2.82,0-5.11,2.29-5.11,5.11s2.29,5.11,5.11,5.11c2.82,0,5.11-2.29,5.11-5.11
				C23.1,15.17,20.81,12.88,17.99,12.88z M17.99,21.26c-1.8,0-3.27-1.47-3.27-3.27c0-1.8,1.47-3.27,3.27-3.27s3.27,1.47,3.27,3.27
				C21.27,19.79,19.8,21.26,17.99,21.26z"/>
			<path class="st1" d="M22.05,28.36h-8.28c-3.44,0-6.23-2.8-6.23-6.23v-8.28c0-3.44,2.79-6.23,6.23-6.23h8.28
				c3.44,0,6.23,2.79,6.23,6.23v8.28C28.28,25.56,25.48,28.36,22.05,28.36z M13.77,9.57c-2.36,0-4.28,1.92-4.28,4.28v8.28
				c0,2.36,1.92,4.28,4.28,4.28h8.28c2.36,0,4.28-1.92,4.28-4.28v-8.28c0-2.36-1.92-4.28-4.28-4.28
				C22.05,9.57,13.77,9.57,13.77,9.57z"/>
		</g>
	</g>
</g>
</svg>
