<?xml version="1.0" encoding="utf-8"?>
<!-- Generator: Adobe Illustrator 26.3.1, SVG Export Plug-In . SVG Version: 6.00 Build 0)  -->
<svg version="1.1" id="Laag_1" xmlns="http://www.w3.org/2000/svg" xmlns:xlink="http://www.w3.org/1999/xlink" x="0px" y="0px"
	 viewBox="0 0 36.95 36.82" style="enable-background:new 0 0 36.95 36.82;" xml:space="preserve">
<style type="text/css">
	.st0{fill:#F2C65E;}
	.st1{fill:#FFFFFF;}
</style>
<g>
	<path class="st0" d="M18.48,0.72c-9.77,0-17.69,7.92-17.69,17.69c0,7.2,4.3,13.38,10.47,16.14c-0.02-0.5-0.04-0.99-0.03-1.49
		c0.06-1.72,0.27-2.31,2.49-11.64c0.03-0.14,0-0.26-0.05-0.39c-0.53-1.43-0.64-2.89-0.17-4.36c1-3.18,4.61-3.43,5.24-0.8
		c0.39,1.62-0.64,3.75-1.43,6.89c-0.65,2.59,2.4,4.43,5,2.54c2.4-1.74,3.34-5.92,3.16-8.89c-0.35-5.91-6.83-7.18-10.94-5.28
		c-4.71,2.18-5.78,8.02-3.66,10.69c0.27,0.34,0.48,0.55,0.39,0.89c-0.14,0.53-0.26,1.07-0.41,1.6c-0.11,0.4-0.44,0.54-0.84,0.38
		c-0.78-0.32-1.44-0.82-1.97-1.47c-1.81-2.24-2.32-6.66,0.07-10.41c2.65-4.15,7.57-5.83,12.06-5.32c5.37,0.61,8.76,4.28,9.4,8.44
		c0.29,1.9,0.08,6.57-2.58,9.87c-3.06,3.8-8.02,4.05-10.31,1.72c-0.18-0.18-0.32-0.39-0.49-0.6c-0.03,0.09-0.05,0.16-0.07,0.23
		c-1.1,4.31-1.22,5.26-2.35,7.26c-0.17,0.31-0.37,0.6-0.55,0.9c1.66,0.52,3.42,0.79,5.25,0.79c9.77,0,17.69-7.92,17.69-17.69
		C36.17,8.64,28.25,0.72,18.48,0.72z"/>
	<path class="st1" d="M15.67,27.06c0.02-0.07,0.04-0.15,0.07-0.23c0.17,0.21,0.31,0.42,0.49,0.6c2.29,2.33,7.25,2.08,10.31-1.72
		c2.66-3.3,2.87-7.98,2.58-9.87c-0.64-4.16-4.03-7.83-9.4-8.44c-4.49-0.51-9.42,1.17-12.06,5.32c-2.39,3.75-1.87,8.17-0.07,10.41
		c0.53,0.66,1.18,1.16,1.97,1.47c0.4,0.16,0.73,0.02,0.84-0.38c0.15-0.53,0.27-1.07,0.41-1.6c0.09-0.34-0.12-0.55-0.39-0.89
		c-2.13-2.67-1.06-8.51,3.66-10.69c4.11-1.9,10.59-0.63,10.94,5.28c0.18,2.96-0.76,7.14-3.16,8.89c-2.61,1.89-5.66,0.05-5-2.54
		c0.79-3.14,1.82-5.26,1.43-6.89c-0.63-2.63-4.24-2.38-5.24,0.8c-0.46,1.47-0.36,2.93,0.17,4.36c0.05,0.13,0.08,0.25,0.05,0.39
		c-2.22,9.33-2.43,9.92-2.49,11.64c-0.02,0.5,0,1,0.03,1.49c0.64,0.29,1.29,0.55,1.97,0.76c0.19-0.3,0.38-0.59,0.55-0.9
		C14.45,32.32,14.57,31.37,15.67,27.06z"/>
</g>
</svg>
