<?xml version="1.0" encoding="utf-8"?>
<!-- Generator: Adobe Illustrator 26.3.1, SVG Export Plug-In . SVG Version: 6.00 Build 0)  -->
<svg version="1.1" id="Laag_1" xmlns="http://www.w3.org/2000/svg" xmlns:xlink="http://www.w3.org/1999/xlink" x="0px" y="0px"
	 viewBox="0 0 147 130.8" style="enable-background:new 0 0 147 130.8;" xml:space="preserve">
<path d="M43.8,48.8h59.4L82.4,8.9c-1.6-3-0.4-6.7,2.6-8.3s6.7-0.4,8.3,2.6L117,48.8h21.8c4.5,0,8.2,3.9,8.2,8.2
	c0,4.7-3.6,8.2-8.2,8.2l-13.2,53.2c-2,7.3-8.3,12.4-15.8,12.4H37c-7.3,0-13.8-5.1-15.6-12.4L8.2,65.1c-4.5,0-8.2-3.4-8.2-8.2
	c0-4.3,3.7-8.2,8.2-8.2H30L53.8,3.3c1.6-3,5.3-4.2,8.3-2.6S66.3,6,64.7,9L43.8,48.8z M48.8,77.3c0-2-1.6-4.1-4.1-4.1
	c-2,0-4.1,2-4.1,4.1v24.5c0,2.5,2.1,4.1,4.1,4.1c2.5,0,4.1-1.6,4.1-4.1V77.3z M69.2,77.3v24.5c0,2.5,2.1,4.1,4.1,4.1
	c2.5,0,4.3-1.6,4.3-4.1V77.3c0-2-1.8-4.1-4.3-4.1C71.3,73.3,69.2,75.3,69.2,77.3z M106.2,77.3c0-2-1.8-4.1-4.1-4.1
	c-2.2,0-4.1,2-4.1,4.1v24.5c0,2.5,1.8,4.1,4.1,4.1c2.2,0,4.1-1.6,4.1-4.1V77.3z"/>
</svg>
