<?xml version="1.0" encoding="utf-8"?>
<!-- Generator: Adobe Illustrator 26.3.1, SVG Export Plug-In . SVG Version: 6.00 Build 0)  -->
<svg version="1.1" id="Laag_1" xmlns="http://www.w3.org/2000/svg" xmlns:xlink="http://www.w3.org/1999/xlink" x="0px" y="0px"
	 viewBox="0 0 415.3 413.9" style="enable-background:new 0 0 415.3 413.9;" xml:space="preserve">
<style type="text/css">
	.st0{fill:#F0C65E;}
</style>
<g>
	<path class="st0" d="M315.6,108.6h-61.2V222h61.2c46.1,0,70.2-20.9,70.2-56.9C385.8,129.1,361.7,108.6,315.6,108.6z"/>
	<path class="st0" d="M415.1,200.5c-8.6,20.6-25.4,35.8-48.8,44.1l48.8,69V200.5z"/>
	<path class="st0" d="M34.5,77.3V218L171.3,77.3h41L104.7,190.7l113.7,137.7V77.3h98.3c49.8,0,84.6,19.1,98.4,52.3v-130H74.7
		c-41,0-74.3,33.3-74.3,74.3v3.4H34.5z"/>
	<path class="st0" d="M386.9,329.3l-54.4-77.4c-5,0.4-10.4,0.7-15.8,0.7h-62.3v76.7h-35.3h-0.7H177L80.6,217.3l-46.1,46.8v65.1H0.4
		v85h347.9c36.9,0,66.8-29.9,66.8-66.8v-18.2H386.9z"/>
</g>
</svg>
